<?xml version="1.0" encoding="UTF-8"?>
<svg id="Capa_2" data-name="Capa 2" xmlns="http://www.w3.org/2000/svg" viewBox="0 0 43.03 43.22">
  <g id="Layer_1" data-name="Layer 1">
    <g>
      <path d="m.06,21.62c0-2.96-.16-5.93.05-8.87.15-2.04.5-4.17,1.31-6.03C3.39,2.19,7.35.31,12.02.17c6.31-.2,12.64-.24,18.95,0,8.08.3,11.71,5.63,11.88,10.82.22,7.02.24,14.05.02,21.07-.17,5.6-3.91,10.76-12.15,11.06-5.35.19-10.72.09-16.08.06-1.51,0-3.05-.08-4.53-.34C4.23,41.82.56,37.88.18,31.93c-.22-3.42-.04-6.87-.04-10.3-.03,0-.06,0-.08,0Zm3.85-.08h-.1c0,2-.06,3.99.02,5.99.08,1.91.12,3.84.5,5.7.64,3.1,2.7,5.03,5.79,5.67,1.55.32,3.16.45,4.75.47,4.47.06,8.94.04,13.41,0,1.27-.01,2.55-.13,3.81-.33,4.25-.7,6.71-3.04,6.9-7.29.28-6.29.38-12.6.17-18.89-.24-7.31-4.49-8.69-9.51-8.96-.16,0-.32,0-.48,0-5.11,0-10.22-.01-15.33,0-.79,0-1.59.1-2.38.22-4.81.73-7.23,3.21-7.53,8.09-.19,3.1-.04,6.22-.04,9.33Z" stroke-width="0"/>
      <path d="m21.5,10.6c5.68-.31,11.17,4.71,11.08,11.02-.09,6.27-4.8,11.05-11.06,11.05-6.25,0-11.06-4.79-11.07-11.04-.01-6.24,4.8-11.04,11.05-11.04Zm-7.17,11.08c.02,3.95,3.18,7.13,7.11,7.17,3.95.04,7.38-3.36,7.35-7.28-.04-3.93-3.5-7.28-7.45-7.19-3.91.09-7.04,3.34-7.01,7.29Z" stroke-width="0"/>
      <path d="m35.58,10.05c.01,1.47-1.1,2.56-2.58,2.53-1.37-.03-2.43-1.04-2.51-2.39-.08-1.38,1.09-2.64,2.49-2.7,1.4-.05,2.59,1.11,2.6,2.55Z" stroke-width="0"/>
    </g>
  </g>
</svg>