<?xml version="1.0" encoding="UTF-8"?>
<svg id="Capa_2" data-name="Capa 2" xmlns="http://www.w3.org/2000/svg" viewBox="0 0 46.36 45.71">
  <g id="Layer_1" data-name="Layer 1">
    <g>
      <path d="m10.5,4.96c0,2.74-2.02,4.96-5.35,4.96C2.02,9.91,0,7.69,0,4.96S2.09,0,5.28,0s5.15,2.15,5.22,4.96ZM.26,45.71V13.82h9.91v31.89H.26Z" stroke-width="0"/>
      <path d="m16.11,24c0-3.98-.13-7.3-.26-10.17h8.61l.46,4.43h.2c1.3-2.09,4.5-5.15,9.85-5.15,6.52,0,11.41,4.37,11.41,13.76v18.85h-9.91v-17.67c0-4.11-1.44-6.91-5.02-6.91-2.74,0-4.37,1.89-5.09,3.72-.26.65-.33,1.57-.33,2.48v18.39h-9.91v-21.72Z" stroke-width="0"/>
    </g>
  </g>
</svg>