<?xml version="1.0" encoding="UTF-8"?>
<svg id="Capa_2" data-name="Capa 2" xmlns="http://www.w3.org/2000/svg" viewBox="0 0 619.63 677.88">
  <g id="Layer_1" data-name="Layer 1">
    <g>
      <g>
        <path d="m145.23,373.95v-165.93h24.22v61.66h1.46c1.4-2.59,3.43-5.59,6.08-8.99,2.65-3.4,6.32-6.39,11.02-8.95,4.7-2.56,10.91-3.85,18.63-3.85,10.05,0,19.01,2.54,26.9,7.62,7.89,5.08,14.08,12.4,18.59,21.96,4.51,9.56,6.77,21.07,6.77,34.51s-2.24,24.97-6.72,34.55c-4.48,9.59-10.64,16.96-18.47,22.12-7.83,5.16-16.77,7.74-26.82,7.74-7.56,0-13.73-1.27-18.51-3.81-4.78-2.54-8.52-5.51-11.22-8.91-2.7-3.4-4.78-6.43-6.24-9.07h-2.03v19.36h-23.66Zm23.74-62.22c0,8.75,1.27,16.42,3.81,23.01,2.54,6.59,6.21,11.73,11.02,15.43,4.81,3.7,10.69,5.55,17.66,5.55s13.29-1.93,18.15-5.79c4.86-3.86,8.55-9.11,11.06-15.76,2.51-6.64,3.77-14.12,3.77-22.44s-1.23-15.58-3.69-22.12c-2.46-6.54-6.13-11.69-11.02-15.47-4.89-3.78-10.98-5.67-18.27-5.67s-12.95,1.81-17.78,5.43c-4.83,3.62-8.49,8.67-10.98,15.15-2.48,6.48-3.73,14.04-3.73,22.69Z" stroke-width="0"/>
        <path d="m343.02,376.47c-12.05,0-22.4-2.74-31.07-8.22-8.67-5.48-15.33-13.06-19.97-22.73-4.65-9.67-6.97-20.74-6.97-33.22s2.38-23.81,7.13-33.5c4.75-9.69,11.45-17.27,20.09-22.73,8.64-5.46,18.82-8.18,30.54-8.18,9.45,0,17.88,1.74,25.28,5.23,7.4,3.48,13.38,8.36,17.95,14.62,4.56,6.27,7.28,13.58,8.14,21.96h-23.58c-1.3-5.83-4.25-10.86-8.87-15.07-4.62-4.21-10.79-6.32-18.51-6.32-6.75,0-12.65,1.77-17.7,5.31-5.05,3.54-8.98,8.56-11.79,15.07-2.81,6.51-4.21,14.19-4.21,23.05s1.38,16.91,4.13,23.5c2.75,6.59,6.66,11.7,11.71,15.31,5.05,3.62,11,5.43,17.86,5.43,4.59,0,8.76-.85,12.52-2.55,3.75-1.7,6.91-4.14,9.48-7.33,2.56-3.19,4.36-7.02,5.39-11.5h23.58c-.86,8.05-3.48,15.23-7.86,21.55s-10.22,11.29-17.54,14.91c-7.32,3.62-15.89,5.43-25.72,5.43Z" stroke-width="0"/>
        <path d="m448.94,300.06v73.89h-24.23v-124.45h23.25v20.25h1.54c2.86-6.59,7.36-11.88,13.49-15.88,6.13-4,13.87-6,23.21-6,8.48,0,15.91,1.77,22.28,5.31,6.37,3.54,11.31,8.79,14.83,15.76,3.51,6.97,5.27,15.58,5.27,25.85v79.16h-24.22v-76.24c0-9.02-2.35-16.08-7.05-21.19-4.7-5.1-11.15-7.66-19.36-7.66-5.62,0-10.6,1.22-14.95,3.65-4.35,2.43-7.78,5.98-10.29,10.65-2.51,4.67-3.77,10.3-3.77,16.89Z" stroke-width="0"/>
        <path d="m206.97,434.25v25.93h-74.94v-25.93h74.94Zm-57.93-29.82h34.51v116.02c0,3.19.49,5.66,1.46,7.41.97,1.76,2.34,2.99,4.09,3.69,1.75.7,3.79,1.05,6.12,1.05,1.62,0,3.24-.15,4.86-.45,1.62-.3,2.86-.53,3.73-.69l5.43,25.68c-1.73.54-4.16,1.17-7.29,1.9-3.13.73-6.94,1.17-11.42,1.34-8.32.32-15.6-.78-21.83-3.32-6.24-2.54-11.09-6.48-14.54-11.83-3.46-5.35-5.16-12.1-5.1-20.25v-120.56Z" stroke-width="0"/>
        <path d="m316.69,561.12c-12.8,0-23.81-2.61-33.02-7.82-9.21-5.21-16.3-12.61-21.27-22.2-4.97-9.59-7.45-20.94-7.45-34.07s2.48-24.04,7.45-33.7c4.97-9.67,11.98-17.2,21.02-22.6,9.05-5.4,19.67-8.1,31.88-8.1,8.21,0,15.87,1.31,22.97,3.93,7.1,2.62,13.31,6.55,18.63,11.79,5.32,5.24,9.47,11.82,12.44,19.73,2.97,7.91,4.46,17.16,4.46,27.75v9.48h-105.08v-21.39h72.59c0-4.97-1.08-9.37-3.24-13.21-2.16-3.83-5.14-6.85-8.95-9.03-3.81-2.19-8.22-3.28-13.25-3.28s-9.87,1.2-13.89,3.61c-4.02,2.4-7.17,5.62-9.44,9.64-2.27,4.02-3.43,8.49-3.48,13.41v20.34c0,6.16,1.15,11.48,3.44,15.96,2.3,4.48,5.55,7.94,9.76,10.37,4.21,2.43,9.21,3.65,14.99,3.65,3.83,0,7.34-.54,10.53-1.62,3.19-1.08,5.91-2.7,8.18-4.86,2.27-2.16,4-4.81,5.19-7.94l31.92,2.11c-1.62,7.67-4.93,14.35-9.92,20.05-5,5.7-11.42,10.13-19.28,13.29-7.86,3.16-16.92,4.74-27.18,4.74Z" stroke-width="0"/>
        <path d="m475.38,561.12c-12.75,0-23.7-2.71-32.85-8.14-9.16-5.43-16.18-12.98-21.06-22.64-4.89-9.67-7.33-20.79-7.33-33.38s2.47-23.94,7.41-33.58c4.94-9.64,11.98-17.18,21.11-22.6,9.13-5.43,19.98-8.14,32.57-8.14,10.86,0,20.36,1.97,28.52,5.91,8.16,3.94,14.61,9.48,19.36,16.61,4.75,7.13,7.37,15.5,7.86,25.12h-32.57c-.92-6.21-3.34-11.22-7.25-15.03-3.92-3.81-9.03-5.71-15.35-5.71-5.35,0-10.01,1.45-13.98,4.33-3.97,2.89-7.06,7.09-9.28,12.6-2.22,5.51-3.32,12.18-3.32,20.01s1.09,14.69,3.28,20.25c2.19,5.56,5.28,9.8,9.28,12.72,4,2.92,8.67,4.38,14.02,4.38,3.94,0,7.49-.81,10.65-2.43,3.16-1.62,5.78-3.98,7.86-7.09,2.08-3.11,3.44-6.85,4.09-11.22h32.57c-.54,9.51-3.12,17.86-7.74,25.08-4.62,7.21-10.98,12.84-19.08,16.89-8.1,4.05-17.69,6.08-28.76,6.08Z" stroke-width="0"/>
      </g>
      <polygon points="44.66 102.91 44.66 530.45 69.14 530.45 69.14 127.39 478.06 127.39 478.06 102.91 44.66 102.91" stroke-width="0"/>
      <polygon points="553.01 102.91 553.01 127.39 595.15 127.39 595.15 653.4 69.14 653.4 69.14 605.41 44.66 605.41 44.66 677.88 619.63 677.88 619.63 102.91 553.01 102.91" stroke-width="0"/>
      <path d="m326.56,216.1v-5.85c2.37-.1,4.71-.26,7.03.12,1.28.21,1.97,1.2,2.03,2.46.07,1.34-.57,2.47-1.72,2.92-.47.18-.99.32-1.48.33-1.91.04-3.82.02-5.86.02Z" fill="#fff" stroke-width="0"/>
      <rect x="478.06" y="59.42" width="74.95" height="24.47" fill="#6cfacd" stroke-width="0"/>
      <rect x="478.06" y="29.71" width="74.95" height="24.47" fill="#6cfacd" stroke-width="0"/>
      <rect x="478.06" width="74.95" height="24.47" fill="#6cfacd" stroke-width="0"/>
      <rect y="530.45" width="24.47" height="74.95" stroke-width="0"/>
    </g>
  </g>
</svg>