<?xml version="1.0" encoding="UTF-8"?>
<svg id="Capa_2" data-name="Capa 2" xmlns="http://www.w3.org/2000/svg" viewBox="0 0 194.16 193.79">
  <g id="Layer_1" data-name="Layer 1">
    <g>
      <g>
        <path d="m45.51,98.56v-51.99h7.59v19.32h.46c.44-.81,1.07-1.75,1.9-2.82.83-1.07,1.98-2,3.45-2.8s3.42-1.21,5.84-1.21c3.15,0,5.96.8,8.43,2.39,2.47,1.59,4.41,3.88,5.83,6.88,1.41,3,2.12,6.6,2.12,10.82s-.7,7.82-2.11,10.83c-1.4,3-3.33,5.31-5.79,6.93s-5.25,2.42-8.4,2.42c-2.37,0-4.3-.4-5.8-1.19s-2.67-1.73-3.52-2.79c-.85-1.07-1.5-2.01-1.96-2.84h-.63v6.07h-7.41Zm7.44-19.5c0,2.74.4,5.15,1.19,7.21.79,2.06,1.95,3.68,3.45,4.84,1.51,1.16,3.35,1.74,5.54,1.74s4.16-.61,5.69-1.82,2.68-2.86,3.46-4.94c.79-2.08,1.18-4.43,1.18-7.03s-.38-4.88-1.16-6.93-1.92-3.66-3.45-4.85c-1.53-1.18-3.44-1.78-5.72-1.78s-4.06.57-5.57,1.7-2.66,2.72-3.44,4.75-1.17,4.4-1.17,7.11Z" stroke-width="0"/>
        <path d="m107.49,99.35c-3.77,0-7.02-.86-9.74-2.58-2.72-1.72-4.8-4.09-6.26-7.12-1.46-3.03-2.18-6.5-2.18-10.41s.74-7.46,2.23-10.5c1.49-3.04,3.59-5.41,6.3-7.12,2.71-1.71,5.9-2.56,9.57-2.56,2.96,0,5.6.55,7.92,1.64,2.32,1.09,4.19,2.62,5.62,4.58,1.43,1.96,2.28,4.26,2.55,6.88h-7.39c-.41-1.83-1.33-3.4-2.78-4.72-1.45-1.32-3.38-1.98-5.8-1.98-2.12,0-3.96.55-5.55,1.66-1.58,1.11-2.81,2.68-3.69,4.72s-1.32,4.45-1.32,7.22.43,5.3,1.29,7.36,2.09,3.66,3.67,4.8c1.58,1.13,3.45,1.7,5.6,1.7,1.44,0,2.75-.27,3.92-.8,1.18-.53,2.17-1.3,2.97-2.3.8-1,1.37-2.2,1.69-3.6h7.39c-.27,2.52-1.09,4.77-2.46,6.75s-3.2,3.54-5.5,4.67c-2.29,1.13-4.98,1.7-8.06,1.7Z" stroke-width="0"/>
        <path d="m140.67,75.4v23.15h-7.59v-38.99h7.29v6.35h.48c.9-2.07,2.31-3.72,4.23-4.98,1.92-1.25,4.34-1.88,7.27-1.88,2.66,0,4.98.55,6.98,1.66,2,1.11,3.55,2.75,4.65,4.94,1.1,2.18,1.65,4.88,1.65,8.1v24.8h-7.59v-23.89c0-2.83-.74-5.04-2.21-6.64-1.47-1.6-3.5-2.4-6.07-2.4-1.76,0-3.32.38-4.68,1.14-1.36.76-2.44,1.87-3.22,3.34s-1.18,3.23-1.18,5.29Z" stroke-width="0"/>
        <path d="m64.85,117.45v8.12h-23.48v-8.12h23.48Zm-18.15-9.34h10.81v36.35c0,1,.15,1.77.46,2.32.3.55.73.94,1.28,1.16.55.22,1.19.33,1.92.33.51,0,1.02-.05,1.52-.14.51-.09.9-.17,1.17-.22l1.7,8.05c-.54.17-1.3.37-2.28.6-.98.23-2.18.37-3.58.42-2.61.1-4.89-.25-6.84-1.04s-3.47-2.03-4.56-3.71c-1.08-1.68-1.62-3.79-1.6-6.35v-37.78Z" stroke-width="0"/>
        <path d="m99.24,157.21c-4.01,0-7.46-.82-10.35-2.45-2.89-1.63-5.11-3.95-6.66-6.96-1.56-3-2.33-6.56-2.33-10.67s.78-7.53,2.33-10.56c1.56-3.03,3.75-5.39,6.59-7.08,2.83-1.69,6.17-2.54,9.99-2.54,2.57,0,4.97.41,7.2,1.23,2.23.82,4.17,2.05,5.84,3.69s2.97,3.7,3.9,6.18,1.4,5.38,1.4,8.7v2.97h-32.93v-6.7h22.75c0-1.56-.34-2.94-1.02-4.14-.68-1.2-1.61-2.15-2.81-2.83s-2.58-1.03-4.15-1.03-3.09.38-4.35,1.13c-1.26.75-2.25,1.76-2.96,3.02s-1.08,2.66-1.09,4.2v6.37c0,1.93.36,3.6,1.08,5,.72,1.4,1.74,2.49,3.06,3.25,1.32.76,2.89,1.14,4.7,1.14,1.2,0,2.3-.17,3.3-.51,1-.34,1.85-.85,2.56-1.52.71-.68,1.25-1.51,1.62-2.49l10,.66c-.51,2.4-1.54,4.5-3.11,6.28-1.57,1.79-3.58,3.17-6.04,4.16-2.46.99-5.3,1.49-8.52,1.49Z" stroke-width="0"/>
        <path d="m148.96,157.21c-4,0-7.43-.85-10.29-2.55-2.87-1.7-5.07-4.07-6.6-7.1-1.53-3.03-2.3-6.52-2.3-10.46s.77-7.5,2.32-10.52c1.55-3.02,3.75-5.38,6.61-7.08,2.86-1.7,6.26-2.55,10.21-2.55,3.4,0,6.38.62,8.94,1.85,2.55,1.24,4.58,2.97,6.07,5.21,1.49,2.23,2.31,4.86,2.46,7.87h-10.21c-.29-1.95-1.05-3.52-2.27-4.71-1.23-1.19-2.83-1.79-4.81-1.79-1.68,0-3.14.45-4.38,1.36-1.24.91-2.21,2.22-2.91,3.95-.69,1.73-1.04,3.82-1.04,6.27s.34,4.6,1.03,6.35,1.65,3.07,2.91,3.99c1.25.91,2.72,1.37,4.39,1.37,1.24,0,2.35-.25,3.34-.76s1.81-1.25,2.46-2.22c.65-.97,1.08-2.15,1.28-3.52h10.21c-.17,2.98-.98,5.6-2.42,7.86-1.45,2.26-3.44,4.02-5.98,5.29-2.54,1.27-5.54,1.9-9.01,1.9Z" stroke-width="0"/>
      </g>
      <polygon points="14 13.63 14 147.59 21.67 147.59 21.67 21.3 149.8 21.3 149.8 13.63 14 13.63" stroke-width="0"/>
      <polygon points="173.28 13.63 173.28 21.3 186.49 21.3 186.49 186.12 21.67 186.12 21.67 171.08 14 171.08 14 193.79 194.16 193.79 194.16 13.63 173.28 13.63" stroke-width="0"/>
      <path d="m102.33,49.09v-1.83c.74-.03,1.48-.08,2.2.04.4.07.62.38.64.77.02.42-.18.77-.54.91-.15.06-.31.1-.47.1-.6.01-1.2,0-1.84,0Z" stroke-width="0"/>
      <rect x="149.8" width="23.48" height="7.67" stroke-width="0"/>
      <rect y="147.59" width="7.67" height="23.48" stroke-width="0"/>
    </g>
  </g>
</svg>