<?xml version="1.0" encoding="UTF-8"?>
<svg id="Capa_2" data-name="Capa 2" xmlns="http://www.w3.org/2000/svg" viewBox="0 0 256.33 253.07">
  <g id="Layer_1" data-name="Layer 1">
    <g>
      <g>
        <path d="m67.32,145.79v-76.91h11.23v28.58h.68c.65-1.2,1.59-2.59,2.82-4.17,1.23-1.58,2.93-2.96,5.11-4.15,2.18-1.19,5.06-1.78,8.64-1.78,4.66,0,8.81,1.18,12.47,3.53,3.66,2.35,6.53,5.75,8.62,10.18,2.09,4.43,3.14,9.76,3.14,16s-1.04,11.57-3.12,16.02c-2.08,4.44-4.93,7.86-8.56,10.25-3.63,2.39-7.77,3.59-12.43,3.59-3.51,0-6.37-.59-8.58-1.76-2.22-1.18-3.95-2.55-5.2-4.13-1.25-1.58-2.22-2.98-2.89-4.21h-.94v8.98h-10.97Zm11-28.84c0,4.06.59,7.61,1.76,10.67,1.18,3.06,2.88,5.44,5.11,7.15,2.23,1.71,4.96,2.57,8.19,2.57s6.16-.89,8.41-2.69c2.25-1.79,3.96-4.22,5.13-7.3s1.75-6.55,1.75-10.4-.57-7.22-1.71-10.25c-1.14-3.03-2.84-5.42-5.11-7.17-2.27-1.75-5.09-2.63-8.47-2.63s-6,.84-8.24,2.52c-2.24,1.68-3.94,4.02-5.09,7.02-1.15,3-1.73,6.51-1.73,10.52Z" stroke-width="0"/>
        <path d="m159,146.96c-5.58,0-10.38-1.27-14.4-3.81-4.02-2.54-7.1-6.05-9.26-10.53-2.15-4.48-3.23-9.61-3.23-15.4s1.1-11.03,3.3-15.53c2.2-4.49,5.31-8,9.31-10.53,4.01-2.53,8.72-3.79,14.16-3.79,4.38,0,8.29.81,11.72,2.42,3.43,1.61,6.2,3.87,8.32,6.78,2.12,2.9,3.37,6.3,3.77,10.18h-10.93c-.6-2.7-1.97-5.03-4.11-6.98s-5-2.93-8.58-2.93c-3.13,0-5.86.82-8.21,2.46-2.34,1.64-4.16,3.97-5.46,6.98-1.3,3.02-1.95,6.58-1.95,10.68s.64,7.84,1.92,10.89c1.28,3.05,3.08,5.42,5.43,7.1,2.34,1.68,5.1,2.52,8.28,2.52,2.13,0,4.06-.39,5.8-1.18s3.2-1.92,4.39-3.4c1.19-1.48,2.02-3.25,2.5-5.33h10.93c-.4,3.73-1.61,7.06-3.64,9.99s-4.74,5.23-8.13,6.91c-3.39,1.68-7.37,2.52-11.92,2.52Z" stroke-width="0"/>
        <path d="m208.09,111.54v34.25h-11.23v-57.68h10.78v9.39h.71c1.33-3.05,3.41-5.51,6.25-7.36,2.84-1.85,6.43-2.78,10.76-2.78,3.93,0,7.37.82,10.33,2.46,2.95,1.64,5.24,4.07,6.87,7.3,1.63,3.23,2.44,7.22,2.44,11.98v36.69h-11.23v-35.34c0-4.18-1.09-7.45-3.27-9.82-2.18-2.37-5.17-3.55-8.98-3.55-2.6,0-4.91.56-6.93,1.69-2.02,1.13-3.6,2.77-4.77,4.94-1.16,2.17-1.75,4.78-1.75,7.83Z" stroke-width="0"/>
        <path d="m95.93,173.74v12.02h-34.74v-12.02h34.74Zm-26.85-13.82h16v53.78c0,1.48.23,2.62.68,3.44s1.08,1.38,1.9,1.71c.81.33,1.76.49,2.83.49.75,0,1.5-.07,2.25-.21.75-.14,1.33-.24,1.73-.32l2.52,11.9c-.8.25-1.93.54-3.38.88-1.45.34-3.22.54-5.29.62-3.86.15-7.23-.36-10.12-1.54-2.89-1.18-5.14-3-6.74-5.48-1.6-2.48-2.39-5.61-2.37-9.39v-55.88Z" stroke-width="0"/>
        <path d="m146.79,232.55c-5.93,0-11.04-1.21-15.3-3.62-4.27-2.42-7.55-5.85-9.86-10.29-2.3-4.44-3.46-9.71-3.46-15.79s1.15-11.14,3.46-15.62c2.3-4.48,5.55-7.97,9.75-10.48s9.12-3.76,14.78-3.76c3.81,0,7.35.61,10.65,1.82,3.29,1.21,6.17,3.04,8.64,5.46,2.47,2.43,4.39,5.48,5.76,9.14,1.38,3.67,2.07,7.96,2.07,12.86v4.39h-48.71v-9.91h33.65c0-2.3-.5-4.34-1.5-6.12-1-1.78-2.38-3.17-4.15-4.19-1.77-1.01-3.81-1.52-6.14-1.52s-4.58.56-6.44,1.67c-1.87,1.11-3.32,2.6-4.38,4.47-1.05,1.87-1.59,3.94-1.61,6.22v9.43c0,2.85.53,5.32,1.6,7.4,1.06,2.08,2.57,3.68,4.53,4.81s4.27,1.69,6.95,1.69c1.78,0,3.4-.25,4.88-.75,1.48-.5,2.74-1.25,3.79-2.25,1.05-1,1.85-2.23,2.4-3.68l14.8.98c-.75,3.56-2.29,6.65-4.6,9.29-2.32,2.64-5.29,4.69-8.94,6.16-3.64,1.46-7.84,2.2-12.6,2.2Z" stroke-width="0"/>
        <path d="m220.35,232.55c-5.91,0-10.98-1.26-15.23-3.77-4.24-2.52-7.5-6.01-9.76-10.5-2.27-4.48-3.4-9.64-3.4-15.47s1.15-11.1,3.44-15.57c2.29-4.47,5.55-7.96,9.78-10.48,4.23-2.52,9.26-3.77,15.1-3.77,5.03,0,9.44.91,13.22,2.74,3.78,1.83,6.77,4.39,8.98,7.7,2.2,3.3,3.42,7.19,3.64,11.64h-15.1c-.43-2.88-1.55-5.2-3.36-6.97-1.82-1.77-4.19-2.65-7.12-2.65-2.48,0-4.64.67-6.48,2.01-1.84,1.34-3.27,3.29-4.3,5.84-1.03,2.55-1.54,5.65-1.54,9.28s.51,6.81,1.52,9.39c1.01,2.58,2.45,4.54,4.3,5.9,1.85,1.35,4.02,2.03,6.5,2.03,1.83,0,3.47-.38,4.94-1.13,1.46-.75,2.68-1.85,3.64-3.29.96-1.44,1.6-3.17,1.9-5.2h15.1c-.25,4.41-1.45,8.28-3.59,11.62s-5.09,5.95-8.84,7.83c-3.76,1.88-8.2,2.82-13.33,2.82Z" stroke-width="0"/>
      </g>
      <path d="m151.37,72.62v-2.71c1.1-.04,2.18-.12,3.26.06.59.1.91.56.94,1.14.03.62-.26,1.15-.8,1.35-.22.08-.46.15-.69.15-.88.02-1.77,0-2.72,0Z" fill="#fff" stroke-width="0"/>
      <rect x="221.59" width="34.74" height="11.34" fill="#6cfacd" stroke-width="0"/>
      <rect y="218.33" width="11.34" height="34.74" stroke-width="0"/>
    </g>
  </g>
</svg>